<svg xmlns="http://www.w3.org/2000/svg" xmlns:xlink="http://www.w3.org/1999/xlink" id="layer" x="0" y="0" version="1.1" viewBox="0 0 652 652" xml:space="preserve" style="enable-background:new 0 0 652 652"><style type="text/css">.st0{fill:#ca003a}</style><path d="M662.5,528.4c0-5.3,4.6-10,16.2-10c6.1,0,11.3,1,16.6,2.8l1.1-4.4c-5-1.8-11.2-3-18-3	c-15.1,0-21.9,6.4-21.9,14.8c0,18.4,36.2,11.8,36.2,26.8c0,7.2-5.7,11.5-16.9,11.5c-7.4,0-13.4-1.5-18.9-4.3l-1.1,4.6	c5.3,2.6,11.9,4.3,20,4.3c15,0,22.9-6.2,22.9-16.4C698.7,535.9,662.5,542.6,662.5,528.4 M612.9,514.8h-6.2v55.8h40.8l0.3-4.8h-34.9	V514.8z M548.5,551.4l12.5-27.3l2.5-5.7h0.3l2.4,5.7l12.3,27.3H548.5z M559.9,514.8l-26.7,55.8h6.7l6.7-14.7h33.9l6.7,14.7h7	l-26.7-55.8H559.9z M514.9,555.9l0.2,5.9l-0.2,0.1l-4.1-5.1l-35.2-42.1h-6.1v55.8h5.7v-42.1l-0.1-6l0.2-0.1l4.1,5.1l36.4,43.1h4.6	v-55.8h-5.5L514.9,555.9z M424.6,566.8c-15.6,0-21.8-5.4-21.8-24.2c0-18.8,6.2-24.1,21.7-24.1c15.6,0,21.7,5.3,21.7,24.1	C446.2,561.4,440.1,566.8,424.6,566.8 M424.5,513.9c-20.4,0-28.1,8.1-28.1,28.8c0,20.7,7.8,28.9,28.1,28.9	c20.5,0,28.1-8.2,28.1-28.9C452.6,522,445,513.9,424.5,513.9 M371.9,570.6h6.2v-55.8h-6.2V570.6z M319.4,528.4c0-5.3,4.6-10,16.2-10	c6.1,0,11.3,1,16.6,2.8l1.1-4.4c-5-1.8-11.2-3-18-3c-15.1,0-21.9,6.4-21.9,14.8c0,18.4,36.1,11.8,36.1,26.8	c0,7.2-5.7,11.5-16.9,11.5c-7.4,0-13.4-1.5-18.9-4.3l-1.1,4.6c5.3,2.6,11.9,4.3,20,4.3c15,0,22.9-6.2,22.9-16.4	C355.7,535.9,319.4,542.6,319.4,528.4 M267.8,528.4c0-5.3,4.6-10,16.2-10c6.1,0,11.3,1,16.6,2.8l1.1-4.4c-5-1.8-11.2-3-18-3	c-15.1,0-21.9,6.4-21.9,14.8c0,18.4,36.2,11.8,36.2,26.8c0,7.2-5.7,11.5-16.9,11.5c-7.4,0-13.4-1.5-18.9-4.3l-1.1,4.6	c5.4,2.6,11.9,4.3,20,4.3c15,0,22.9-6.2,22.9-16.4C304.1,535.9,267.8,542.6,267.8,528.4 M213.5,543.4h30.9v-4.2h-30.9v-19.8h35.7	l-0.3-4.6h-41.5v55.8h43.2l0.3-4.6h-37.4V543.4z M193.2,519.5l-0.2-4.8h-41.5v55.8h6.2v-26.4h29.9v-4.5h-29.9v-20.1H193.2z M106.6,566.8c-15.6,0-21.8-5.4-21.8-24.2c0-18.8,6.2-24.1,21.7-24.1c15.6,0,21.7,5.3,21.7,24.1	C128.2,561.4,122.1,566.8,106.6,566.8 M106.6,513.9c-20.4,0-28.1,8.1-28.1,28.8c0,20.7,7.8,28.9,28.1,28.9	c20.5,0,28.1-8.2,28.1-28.9C134.6,522,127,513.9,106.6,513.9 M43.9,541.5H27.9v-22.3h16.6c9.9,0,14.3,3.1,14.3,10.9	C58.8,538.2,54.2,541.5,43.9,541.5 M65.1,529.9c0-10.2-6.5-15.1-20.7-15.1H21.7v55.8h6.2v-25h16.3l18,25h7.5l-19.6-26	C59.9,543.7,65.1,539,65.1,529.9 M-16.5,543.8h-16.2v-24.6h16.2c11.3,0,16.6,3.3,16.6,12.2C0.1,540.8-5.5,543.8-16.5,543.8 M-16.5,514.8H-39v55.8h6.2V548h16.2c16.2,0,22.9-5.4,22.9-16.7C6.4,519.7-0.6,514.8-16.5,514.8 M447,462.4	c0-23.5,0.2-97.7,0.2-97.7h-24.9l-0.2,101.1c0,0-1.4,25.7,24.7,25.7h71.5c0,0,4.6-8.8,10.6-21.9h-74.6	C450.3,469.5,447,466.5,447,462.4 M410.1,491.5c0,0,1.2-21.9-10.6-21.9c-17.2,0-50.8,0-65.7,0c-4.1,0-7.4-3.1-7.4-7.2	c0-23.5,0-97.7,0-97.7h-24.9v101.1c0,0-1.4,25.7,24.7,25.7H410.1z M607.3,392.2c1.3-2.4,3.7-5.6,8-5.7c5.1,0.1,6.7,3.1,8,5.6	c8.9,16.6,26.5,55.8,26.5,55.8h-68.8C580.9,448,598.5,408.9,607.3,392.2 M573.1,467.2l84.4,0l11.4,24.3h29.4L644,377.5	c0,0-5.1-12.5-18.4-12.5l-20.5,0c-13.2,0-18.4,12.5-18.4,12.5l-54.4,113.9h29.5L573.1,467.2z M156.5,337.7c1.2,1.7,3.9,1,3.7-1.1	c-1.5-12.7-5.3-25.7-13.9-35.5c-8.5-9.7-20.5-13.7-33.1-15.6c-13.7-2.2-27.7-1.5-41.6-0.7c-6.2,0.3-13.3,1.8-19.5,0.6	c-7.3-1.4-7.2-8.4-5.1-14.1c1-2.7,3.6-5.7,3.7-8.6c0.1-1.4-0.5-2.8-1.3-4l-1.6-1.9c-1.1-1-1.4-1-0.9-2.6c0.5-1.6,1.3-3.1,2.3-4.3	c1.1-1.2,3-1.4,3.3-3.3c0.4-2-1.2-2.8-2.7-3.5c-1.9-0.8-6.6-4.7-4.3-6.7c2.8-2.5,4.6-6,4.7-9.7c0.1-3.1-1.2-6-3.8-7.8	c-3-2.1-6.9-5-7.5-8.8c-0.3-1.9,5.9-5.1,7.4-6.1c3.5-2.4,7-4.7,10.4-7.2c6.5-4.7,13.7-10,17.7-17.2c3.9-6.9,3-15.8,4.7-23.4	c0.8-3.6,2-7.2,3.6-10.5c3.8-6,8.3-11.3,14-15.5l1.4-1l0.2-0.2l2.1-1.3c2.1-1.3,4.5-2.5,6.5-4c2.8-2.1,4.4-5.2,6.6-7.9	c11.3-14.1,29.1-18.5,46.8-18.1c26.7,0.6,49.4,17.3,70.3,32.1c23,16.3,45.6,33.5,70.2,47.4c12.4,7,25.3,13.2,39.3,16.3	c15.5,3.5,31.5,3.6,47.1,1.5c13-1.7,25.7-4.9,38-9.2c10.9-3.8,21.3-8.6,31.9-13.1c14.3-6,28.9-11.8,44.2-15.1	c13.4-2.8,28.5-3.8,41.3,1.8c5.5,2.4,12.4,7.9,16.1,12.6c1.3,1.6,4,4.7,4.6,1c0.7-4-0.1-8.4-1.7-12c-4.8-10.7-12.4-17.6-25.8-23.2	c-10.7-4.5-22-6.1-33.4-5c-22.7,2.2-44.1,10.9-65.1,19.1c-15.4,6-30.7,13.2-47.1,15.8c-24.6,4-51.4-0.7-73.2-12.4	c-21.5-11.5-41.2-26.3-61-40.3c-20.2-14.2-40.2-28.5-63.6-36.9c-22.7-8.2-47.5-8.8-69.6,1.7c-10.9,5.2-21.2,13.8-25.4,25.4	c-0.7,1.8-1,3.9-2.1,5.5l-1.4,1.5c-1,0.6-1.9,1.2-2.3,1.4l-1.5,0.9l-0.9,0.4c-1.8,0.9-3.5,2.1-5.2,3.4c-3.3,2.3-6.4,4.7-9.2,7.7	c-8.3,8.8-12.3,20.4-15,31.9c-0.8,3.7-1.5,7.4-2.2,11.2c-0.7,4.3-2.1,7-5.2,10.1c-5.8,5.7-12.9,10.2-19.7,14.7	c-3.1,2.1-6.3,4.1-9.5,6.2c-1.8,1.2-4.5,2.4-5.6,4.2c-3.4,5.3,1.4,12,5,15.6c2.1,2,5.5,3.8,5.8,6.9c0.3,2.5-1.4,4.9-3.1,6.6	c-0.9,0.9-2.6,1.7-2.8,3c-0.2,1.5-0.3,3.1,0.1,4.5c0.8,3.4,3.5,5.6,6.3,7.5c-4.6,2-12.3,9.9-6.3,14.5c3.6,2.7,3.3,4.9,2.3,8.8	c-1,3.9-1.8,7.9-1.9,12c-0.1,6.7,2.1,13.2,8.5,16.4c6.7,3.3,15.3,2.7,22.6,2.4c28.6-1.3,61-8.9,85.1,11c3.4,2.8,6.4,6,9.1,9.5	c1.7,2.3,3.2,4.6,4.6,7.1C154.1,332.3,154.9,335.4,156.5,337.7 M462.3,259.6c-26.9,10.1-53.5,21.6-82.3,24.5	c-27.1,2.7-54.3-2.4-77.5-16.6c-19.6-12-36.6-27.8-54.1-42.5c-8.9-7.5-17.9-15.3-28.9-19.8c-5.6-2.3-12-4.2-18.2-3.7	c-1.9,0.1-8.3,1.1-7,4.5c2,1.6,5,1.4,7.3,2.5c2.3,1.1,4.4,2.4,6.5,3.8c7.8,5.3,14.9,11.7,21.5,18.5c9.6,9.9,18.4,20.6,28.1,30.6	c9.2,9.6,19.1,19,29.6,27.2c8.2,6.4,17.2,11.6,27,15.3c12.6,4.6,26.1,6.8,39.5,7.9c32.8,2.7,64.5-5.4,94.9-17	c27.7-10.5,54.8-23,84.4-27.9c20.6-3.4,43.6-2.8,61.2,9.7c5.5,3.8,9.9,8.8,12.8,14.8l1.1,2c1.8,2.4,3.2-3.5,3.5-4.7	c1.4-6.2,0.2-13.7-2.6-19.3c-4.2-8.5-12.2-13.6-20-17.9c-10.2-5.6-22.8-7.7-34.4-8.8C523.1,239.3,491.6,248.7,462.3,259.6 M511.8,186.6c-24.9,3-47.2,14.7-70.4,23.5c-14,5.4-28.4,9.8-43.2,12.8c-15.3,3.1-31,4.8-46.6,2.5c-12-1.8-23.3-6-34.1-11.3	c-9.8-4.7-19.6-9.6-28.7-15.4c-19.6-12.4-37.7-27.2-55.5-41.9c-17.9-14.8-39.3-29.9-63.9-27.2c-5.7,0.6-11.3,2.2-16.3,5	c-1.8,1.1-9.4,5.3-8.2,8c0.8,1.9,3.7,1.4,5.3,1.1c3.2-0.5,6.3-1,9.5-1.3c5.8-0.5,11.5,0.2,17.1,1.6c15.2,3,28.3,12.4,39.8,22.2	c8.9,7.6,17.2,15.9,25.4,24.2c17.7,17.8,35.6,37.3,58.5,48.8c27.9,14,59.3,18.7,90.1,13.6c27.5-4.6,55-13.7,79.9-26.1	c14.6-7.2,29.7-13.8,45.9-16.6c14.2-2.5,29.6-2.8,43,3c8.5,3.7,15.6,9.4,22.2,15.8c0.9,0.9,2.3,2.6,3.7,2.4c1.7-0.3,1.4-3.8,1.4-4.9	c0.1-4.6-0.7-9.1-2.5-13.3c-4.5-10.1-14.2-16.5-24.2-20.5C544.7,186.4,528,184.7,511.8,186.6 M185.7,491.1h100	c0,0,0.9-21.5-10.9-22.1c-21.4,0-68.4,0.1-84.6,0.1c-8.5,0-7.6-7.8-7.6-7.8v-23.8h72.6v-22.1h-72.6v-21.4c0,0,0-6.8,7.6-6.8h84.4	c9.1,0,10.4-22.1,10.4-22.1h-99.8c-29.3,0-28.3,25.4-28.3,25.4v74.5C156.8,465.1,157.2,491.1,185.7,491.1 M87.9,454.1	c-2.2-5.9-18.8-52.7-27.6-77c0.2,0.4-2.4-9.9-9.2-10c-2.1-0.4-15-0.3-15-0.3s-7.3-1.1-11.5,10.5C15.7,401.6-1.1,448-3.3,454	c-2.8-8.7-28.4-88.9-28.4-88.9H-58l40.9,126H7.4c0,0,31.6-82.7,34.6-90.6c2.9,8,33.3,90.6,33.3,90.6H101l42.2-126h-25.9	C117.3,365.1,90.7,445.4,87.9,454.1" class="st0"/><path d="M698.7,384.2v-19.3h-3.2l-4.3,10.5l-2.1,5.4h-0.2l-2.1-5.4l-4.3-10.5h-3.4v19.3h2.3v-10.3l0-5.9l0.1-0.1	l2.1,5.5l4.5,10.7h1.9l4.4-10.8l2.1-5.5l0.2,0.1l-0.2,5.9v10.3H698.7z M676.1,367.4v-2.5h-14.4v2.5h5.9v16.8h2.6v-16.8H676.1z" class="st0"/></svg>